PathFileType	4	(X/Y/Z)	 s10c0301.trc
DataRate	CameraRate	NumFrames	NumMarkers	Units	OrigDataRate	OrigDataStartFrame	OrigNumFrames
200	200	6	50	mm	200	751	2000
Frame#	Time	racr			lacr			c7			jug			rlel			rdr			llel			ldr			s2			lic			ric			lasi			rasi			rpsi			lpsi			rgt			lgt			rth1			rth2			rth3			rth4			rlfc			rmfc			rsh1			rsh2			rsh3			rsh4			rlmal			rmmal			rcal			rtoe			rmt5			lth1			lth2			lth4			lth3			llfc			lmfc			llmal			lmmal			lcal			lmt5			lsh1			lsh2			lsh3			lsh4			ltoe			SBIKE			LBIKE			RBIKE			
		X1	Y1	Z1	X2	Y2	Z2	X3	Y3	Z3	X4	Y4	Z4	X5	Y5	Z5	X6	Y6	Z6	X7	Y7	Z7	X8	Y8	Z8	X9	Y9	Z9	X10	Y10	Z10	X11	Y11	Z11	X12	Y12	Z12	X13	Y13	Z13	X14	Y14	Z14	X15	Y15	Z15	X16	Y16	Z16	X17	Y17	Z17	X18	Y18	Z18	X19	Y19	Z19	X20	Y20	Z20	X21	Y21	Z21	X22	Y22	Z22	X23	Y23	Z23	X24	Y24	Z24	X25	Y25	Z25	X26	Y26	Z26	X27	Y27	Z27	X28	Y28	Z28	X29	Y29	Z29	X30	Y30	Z30	X31	Y31	Z31	X32	Y32	Z32	X33	Y33	Z33	X34	Y34	Z34	X35	Y35	Z35	X36	Y36	Z36	X37	Y37	Z37	X38	Y38	Z38	X39	Y39	Z39	X40	Y40	Z40	X41	Y41	Z41	X42	Y42	Z42	X43	Y43	Z43	X44	Y44	Z44	X45	Y45	Z45	X46	Y46	Z46	X47	Y47	Z47	X48	Y48	Z48	X49	Y49	Z49	X50	Y50	Z50	
751	3.7550	645.002266	1291.548957	-43.692309	678.909728	1323.268863	-365.914094	639.524052	1349.649366	-211.068731	635.429644	1210.861362	-221.462729	527.787070	1055.912537	52.419259	648.972945	878.320483	-14.860249	627.418194	1067.008481	-490.874100	671.742589	887.900458	-378.696889	129.011239	1135.754877	-145.695475	241.425575	1159.781245	-335.614915	343.227812	1134.939470	-58.761027	272.515494	1074.115617	-323.742800	330.167036	1040.840574	-78.735757	190.964666	1179.342759	-96.162872	164.091842	1200.417108	-203.674941	231.427002	1012.527231	3.899602	146.367319	1035.410135	-359.890797	249.891606	873.453189	11.915823	276.937881	793.881827	-16.694035	260.203538	710.582160	-29.984952	310.189623	801.107155	-31.678430	278.494012	610.184392	-61.716060	238.558794	604.962297	-168.888665	225.004681	510.559148	-22.142001	223.305689	423.405590	-38.677289	181.873204	347.480134	-36.194109	246.076882	420.006472	-69.764259	142.987799	257.259920	-47.231295	160.968497	260.507815	-130.193898	87.019316	254.913764	-93.486657	306.595388	147.464474	-87.490344	219.324761	153.585350	-26.527392	257.241541	952.807872	-390.980095	342.158025	932.528409	-387.367178	359.176056	962.835357	-374.845508	406.112615	871.045515	-391.842880	488.052673	796.717719	-379.256061	482.671838	774.865207	-255.363397	148.728518	623.717413	-374.141671	161.010855	613.594566	-293.149038	89.413217	641.906191	-329.917162	159.257330	477.026273	-388.015053	376.695551	748.433682	-407.634036	316.723456	686.788968	-392.488762	230.368214	663.217507	-388.027519	333.536934	663.092022	-366.503975	226.412822	427.137135	-327.854837	-204.357974	834.351882	-224.247949	-78.281889	81.781285	-423.629317	-102.699369	80.395209	-24.353300	
752	3.7600	646.979879	1292.615665	-47.276812	677.858315	1324.412447	-368.459186	638.862095	1350.146188	-213.996914	635.654036	1211.099485	-224.057701	530.331837	1057.206063	52.293841	649.145624	877.688652	-13.363449	628.516923	1067.241829	-491.193110	671.634592	887.979385	-378.948089	129.803614	1134.586256	-142.628335	241.010994	1158.611394	-335.054570	345.455026	1134.096148	-58.779507	272.725716	1072.862154	-323.636528	331.439043	1040.554673	-78.606065	192.082061	1178.320595	-94.561802	164.593506	1199.547161	-201.950252	231.824481	1012.276268	4.360436	147.493109	1035.338189	-358.634051	248.400041	873.320468	14.129888	273.513805	793.149996	-14.132277	255.353285	710.159032	-26.991880	307.082256	799.533369	-29.253046	271.318084	609.289507	-58.425969	231.426220	604.016096	-165.671030	217.993864	509.703684	-19.811559	216.336814	422.451605	-36.148387	174.884504	346.507935	-34.336702	239.423435	419.277903	-67.160006	136.974698	256.424858	-46.104680	154.888329	259.813344	-128.695666	81.215437	255.918302	-92.334993	297.585977	142.190448	-88.125795	210.811838	150.381104	-26.784772	258.347316	953.788530	-390.266757	343.740050	935.437093	-387.541145	360.129134	966.118937	-374.843079	408.979764	875.404723	-392.901523	494.458814	803.300033	-380.442256	490.922129	781.756127	-256.199155	158.558078	626.708338	-373.487116	170.928701	616.369541	-292.264573	99.326800	644.096970	-328.728219	169.280032	479.778628	-387.358461	384.368196	754.292839	-407.623675	325.085078	691.914813	-392.638174	239.209053	667.286695	-387.494853	342.503621	668.143636	-366.944337	236.470918	429.671625	-327.360402	-204.622084	834.382613	-224.266234	-78.282176	81.784308	-423.609086	-102.691742	80.392360	-24.348660	
753	3.7650	649.163535	1293.622717	-50.810062	676.652675	1325.410605	-371.133940	638.218094	1350.532671	-216.978519	635.831120	1211.545766	-226.797296	533.085760	1058.376053	52.256012	649.324138	878.011268	-14.566030	629.461427	1067.464648	-491.663826	671.486102	888.051798	-379.181598	128.564109	1135.478814	-140.290134	240.875244	1157.638645	-334.782345	347.463571	1133.448563	-59.017933	273.186483	1071.895941	-323.383128	332.537659	1040.503803	-78.546766	193.104851	1179.844232	-94.630392	165.154920	1198.838419	-200.566291	232.115880	1012.075408	5.190901	149.021964	1035.375987	-357.394891	246.747834	873.592736	16.311457	270.375470	792.892936	-11.524605	250.644733	710.141965	-24.121386	304.054782	798.659749	-26.551428	264.610511	608.928139	-55.073940	226.383639	604.267505	-162.175934	210.955303	509.270166	-17.279813	209.285330	422.094537	-33.705824	167.734143	346.233786	-32.235083	233.244474	418.915067	-63.718279	130.939385	255.860881	-44.988422	148.514889	260.292484	-127.136645	75.588768	257.845313	-91.495015	288.418233	137.615090	-88.680057	201.940366	147.638406	-26.905254	259.464063	954.715815	-389.678086	345.216039	938.158654	-387.528072	361.124073	968.782967	-374.420772	411.613054	880.001972	-394.722643	500.540308	809.996991	-381.944055	499.616766	788.741449	-257.235300	167.799485	628.550524	-372.073253	181.153013	618.608216	-291.347025	108.756554	645.777014	-328.059303	179.383414	481.916693	-386.818877	391.949271	760.076808	-408.019743	333.818555	696.432670	-392.368082	248.169701	670.770230	-387.127661	351.620020	672.889787	-367.478786	246.713484	432.080406	-326.864593	-204.550570	834.200475	-224.005085	-78.271654	81.806261	-423.615812	-102.704860	80.385405	-24.365689	
754	3.7700	651.462445	1294.565927	-54.298798	675.362058	1326.350188	-373.879322	637.735695	1350.879804	-219.926161	636.022536	1211.792447	-229.555260	535.958205	1059.620960	52.193250	649.413919	877.310298	-13.091880	630.083641	1067.630802	-492.280412	671.292806	888.082004	-379.347395	129.790800	1135.811330	-140.822076	240.982442	1156.859740	-334.746428	349.208375	1132.794512	-59.141374	273.777038	1070.826678	-322.602717	333.267752	1040.120381	-78.401543	194.533954	1179.822736	-93.180152	165.808698	1198.164395	-199.618673	232.164193	1012.110129	6.168656	150.834835	1035.752636	-356.933164	245.042490	874.175176	18.403962	267.281518	793.075820	-8.969301	246.080458	710.679394	-21.176636	301.168843	798.019288	-23.809262	258.221412	608.903327	-51.898548	219.151351	604.230255	-160.249878	203.849949	509.553852	-14.547509	202.369495	422.305203	-30.926093	160.366208	346.600255	-30.017894	226.818207	418.948152	-60.492632	124.858020	255.961685	-44.069015	142.528567	261.163178	-125.567554	70.104438	259.947706	-90.588958	278.940582	133.092491	-88.882110	193.019213	145.555383	-27.047101	260.743712	955.595900	-389.287246	346.727326	940.658910	-387.547216	362.098918	971.394571	-374.381554	414.167502	883.463304	-395.482143	506.257343	816.909262	-383.525863	507.492424	795.388659	-257.909213	177.273307	630.161250	-371.283403	191.009895	620.165040	-290.586293	117.998066	646.716853	-327.252550	189.406325	483.554482	-386.201498	399.291366	765.559674	-408.225810	342.404665	700.866486	-392.749395	257.167405	673.789757	-386.868707	360.734650	677.486399	-368.263855	256.975520	434.168885	-326.858346	-204.587606	834.183398	-223.994505	-78.274888	81.785664	-423.605716	-102.699845	80.385054	-24.347071	
755	3.7750	653.857263	1295.470011	-57.690198	674.018653	1327.169844	-376.741396	637.316419	1351.098912	-222.728052	636.188586	1211.832811	-232.268166	539.027593	1060.890647	52.143405	649.570458	877.010360	-12.894642	630.450226	1067.727511	-493.126395	671.090964	888.130468	-379.536534	131.581559	1135.448272	-140.090356	241.513291	1156.271549	-334.995981	350.649599	1132.151714	-59.200057	274.485485	1069.929012	-321.666087	333.796565	1039.874406	-78.058252	195.765905	1179.922149	-91.990706	166.507492	1197.888327	-198.965529	232.127770	1012.494097	7.508899	152.732516	1036.037280	-356.678304	243.186054	875.313691	20.382180	264.249479	793.608021	-6.540551	241.906113	711.638591	-18.402049	298.718586	797.941077	-21.113580	252.202254	609.177697	-48.861450	214.114576	605.338990	-158.618704	197.092574	510.314721	-12.155873	195.432177	423.138004	-28.210798	152.929326	347.636131	-27.967347	220.391251	419.508179	-57.294282	119.077195	256.612222	-43.081532	136.893146	262.335190	-124.115488	64.790876	262.754682	-89.506367	269.403925	129.087759	-89.586534	184.336284	144.172998	-27.257541	262.236426	956.509925	-389.137912	348.350109	942.931431	-387.594209	363.288384	973.849812	-374.503388	416.590796	886.635687	-396.052515	511.393158	823.334894	-384.322419	515.656117	801.976297	-258.676893	185.956405	630.970054	-370.232243	200.565956	621.233874	-289.976917	126.657638	646.825436	-326.350856	199.386914	484.650635	-385.713028	406.457063	770.873009	-408.526800	350.871302	704.987479	-393.285793	266.121122	676.442186	-386.760178	369.769084	681.795521	-368.969480	267.461415	435.805768	-326.540886	-204.597693	834.174430	-223.992133	-78.277622	81.781931	-423.614097	-102.716098	80.404276	-24.351885	
756	3.7800	656.381472	1296.325439	-61.119715	672.679005	1327.894836	-379.611202	637.189420	1351.223858	-225.408135	636.473164	1211.789557	-234.832226	542.265330	1062.109965	51.889776	649.785990	877.128607	-14.189329	630.523791	1067.711552	-494.042522	670.837889	888.201062	-379.654642	132.650660	1135.490360	-140.779863	242.438449	1155.930119	-335.416930	351.615577	1131.527328	-59.056670	275.382500	1068.947735	-320.408212	334.059568	1039.746489	-77.467661	196.575693	1180.085155	-91.065307	167.104467	1197.938139	-198.585344	231.748176	1013.098454	8.611219	155.036737	1036.415548	-356.961677	241.338513	876.705350	22.092352	261.368183	794.659485	-4.366577	237.953830	712.939178	-16.151245	296.167635	798.367366	-18.424784	246.494320	609.931782	-45.921385	209.429631	607.193756	-157.706323	190.662469	511.723808	-10.159609	188.605133	424.443644	-25.660039	145.548727	349.257185	-25.978436	214.215350	420.433753	-54.148506	113.830114	257.814071	-41.822930	131.079773	264.143945	-122.471940	60.094880	266.398658	-88.256475	259.920227	125.700573	-90.324106	175.522652	143.095430	-27.654583	263.948784	957.452096	-388.956873	350.115911	944.903526	-387.352942	364.635826	976.229647	-375.002925	418.993819	889.588388	-396.401622	516.162141	830.119529	-385.269131	523.695883	808.524077	-260.761558	194.368924	631.322980	-369.241225	209.591224	622.139120	-289.454530	134.599972	646.321945	-325.327857	209.027680	485.288562	-385.301463	413.312166	775.807189	-408.998788	359.175039	708.717491	-393.928115	274.979170	678.525612	-386.825001	378.577988	685.854952	-369.670974	277.855342	436.819961	-325.743678	-204.607726	834.180119	-224.001174	-78.268851	81.803336	-423.602996	-102.711549	80.390601	-24.359392	
